<svg xmlns="http://www.w3.org/2000/svg" aria-hidden="true" style="display:none">
  <!-- Lucide Icons v1.34.0, ISC License: https://lucide.dev/license -->
  <symbol id="icon-arrow-left" viewBox="0 0 24 24" fill="none" stroke="currentColor" stroke-width="2" stroke-linecap="round" stroke-linejoin="round">
    <path d="m12 19-7-7 7-7" />
    <path d="M19 12H5" />
  </symbol>
  <symbol id="icon-arrow-right" viewBox="0 0 24 24" fill="none" stroke="currentColor" stroke-width="2" stroke-linecap="round" stroke-linejoin="round">
    <path d="M5 12h14" />
    <path d="m12 5 7 7-7 7" />
  </symbol>
  <symbol id="icon-calendar-clock" viewBox="0 0 24 24" fill="none" stroke="currentColor" stroke-width="2" stroke-linecap="round" stroke-linejoin="round">
    <path d="M16 14v2.2l1.6 1" />
    <path d="M16 2v3" />
    <path d="M21 7.338V5a2 2 0 00-2-2H5a2 2 0 00-2 2v14a2 2 0 002 2h2.338" />
    <path d="M3 9h5.859" />
    <path d="M8 2v3" />
    <circle cx="16" cy="16" r="6" />
  </symbol>
  <symbol id="icon-copy" viewBox="0 0 24 24" fill="none" stroke="currentColor" stroke-width="2" stroke-linecap="round" stroke-linejoin="round">
    <rect width="14" height="14" x="8" y="8" rx="2" ry="2" />
    <path d="M4 16c-1.1 0-2-.9-2-2V4c0-1.1.9-2 2-2h10c1.1 0 2 .9 2 2" />
  </symbol>
  <symbol id="icon-download" viewBox="0 0 24 24" fill="none" stroke="currentColor" stroke-width="2" stroke-linecap="round" stroke-linejoin="round">
    <path d="M12 15V3" />
    <path d="M21 15v4a2 2 0 0 1-2 2H5a2 2 0 0 1-2-2v-4" />
    <path d="m7 10 5 5 5-5" />
  </symbol>
  <symbol id="icon-external-link" viewBox="0 0 24 24" fill="none" stroke="currentColor" stroke-width="2" stroke-linecap="round" stroke-linejoin="round">
    <path d="M15 3h6v6" />
    <path d="M10 14 21 3" />
    <path d="M18 13v6a2 2 0 0 1-2 2H5a2 2 0 0 1-2-2V8a2 2 0 0 1 2-2h6" />
  </symbol>
  <symbol id="icon-file-code-2" viewBox="0 0 24 24" fill="none" stroke="currentColor" stroke-width="2" stroke-linecap="round" stroke-linejoin="round">
    <path d="M4 12.15V4a2 2 0 0 1 2-2h8a2.4 2.4 0 0 1 1.706.706l3.588 3.588A2.4 2.4 0 0 1 20 8v12a2 2 0 0 1-2 2h-3.35" />
    <path d="M14 2v5a1 1 0 0 0 1 1h5" />
    <path d="m5 16-3 3 3 3" />
    <path d="m9 22 3-3-3-3" />
  </symbol>
  <symbol id="icon-file-down" viewBox="0 0 24 24" fill="none" stroke="currentColor" stroke-width="2" stroke-linecap="round" stroke-linejoin="round">
    <path d="M6 22a2 2 0 0 1-2-2V4a2 2 0 0 1 2-2h8a2.4 2.4 0 0 1 1.704.706l3.588 3.588A2.4 2.4 0 0 1 20 8v12a2 2 0 0 1-2 2z" />
    <path d="M14 2v5a1 1 0 0 0 1 1h5" />
    <path d="M12 18v-6" />
    <path d="m9 15 3 3 3-3" />
  </symbol>
  <symbol id="icon-globe-2" viewBox="0 0 24 24" fill="none" stroke="currentColor" stroke-width="2" stroke-linecap="round" stroke-linejoin="round">
    <path d="M21.54 15H17a2 2 0 0 0-2 2v4.54" />
    <path d="M7 3.34V5a3 3 0 0 0 3 3a2 2 0 0 1 2 2c0 1.1.9 2 2 2a2 2 0 0 0 2-2c0-1.1.9-2 2-2h3.17" />
    <path d="M11 21.95V18a2 2 0 0 0-2-2a2 2 0 0 1-2-2v-1a2 2 0 0 0-2-2H2.05" />
    <circle cx="12" cy="12" r="10" />
  </symbol>
  <symbol id="icon-key-round" viewBox="0 0 24 24" fill="none" stroke="currentColor" stroke-width="2" stroke-linecap="round" stroke-linejoin="round">
    <path d="M2.586 17.414A2 2 0 0 0 2 18.828V21a1 1 0 0 0 1 1h3a1 1 0 0 0 1-1v-1a1 1 0 0 1 1-1h1a1 1 0 0 0 1-1v-1a1 1 0 0 1 1-1h.172a2 2 0 0 0 1.414-.586l.814-.814a6.5 6.5 0 1 0-4-4z" />
    <circle cx="16.5" cy="7.5" r=".5" fill="currentColor" />
  </symbol>
  <symbol id="icon-lock-keyhole" viewBox="0 0 24 24" fill="none" stroke="currentColor" stroke-width="2" stroke-linecap="round" stroke-linejoin="round">
    <circle cx="12" cy="16" r="1" />
    <rect x="3" y="10" width="18" height="12" rx="2" />
    <path d="M7 10V7a5 5 0 0 1 10 0v3" />
  </symbol>
  <symbol id="icon-log-in" viewBox="0 0 24 24" fill="none" stroke="currentColor" stroke-width="2" stroke-linecap="round" stroke-linejoin="round">
    <path d="m10 17 5-5-5-5" />
    <path d="M15 12H3" />
    <path d="M15 3h4a2 2 0 0 1 2 2v14a2 2 0 0 1-2 2h-4" />
  </symbol>
  <symbol id="icon-log-out" viewBox="0 0 24 24" fill="none" stroke="currentColor" stroke-width="2" stroke-linecap="round" stroke-linejoin="round">
    <path d="m16 17 5-5-5-5" />
    <path d="M21 12H9" />
    <path d="M9 21H5a2 2 0 0 1-2-2V5a2 2 0 0 1 2-2h4" />
  </symbol>
  <symbol id="icon-panel-top" viewBox="0 0 24 24" fill="none" stroke="currentColor" stroke-width="2" stroke-linecap="round" stroke-linejoin="round">
    <rect width="18" height="18" x="3" y="3" rx="2" />
    <path d="M3 9h18" />
  </symbol>
  <symbol id="icon-plus" viewBox="0 0 24 24" fill="none" stroke="currentColor" stroke-width="2" stroke-linecap="round" stroke-linejoin="round">
    <path d="M5 12h14" />
    <path d="M12 5v14" />
  </symbol>
  <symbol id="icon-power" viewBox="0 0 24 24" fill="none" stroke="currentColor" stroke-width="2" stroke-linecap="round" stroke-linejoin="round">
    <path d="M12 2v10" />
    <path d="M18.4 6.6a9 9 0 1 1-12.77.04" />
  </symbol>
  <symbol id="icon-qr-code" viewBox="0 0 24 24" fill="none" stroke="currentColor" stroke-width="2" stroke-linecap="round" stroke-linejoin="round">
    <rect width="5" height="5" x="3" y="3" rx="1" />
    <rect width="5" height="5" x="16" y="3" rx="1" />
    <rect width="5" height="5" x="3" y="16" rx="1" />
    <path d="M21 16h-3a2 2 0 0 0-2 2v3" />
    <path d="M21 21v.01" />
    <path d="M12 7v3a2 2 0 0 1-2 2H7" />
    <path d="M3 12h.01" />
    <path d="M12 3h.01" />
    <path d="M12 16v.01" />
    <path d="M16 12h1" />
    <path d="M21 12v.01" />
    <path d="M12 21v-1" />
  </symbol>
  <symbol id="icon-refresh-cw" viewBox="0 0 24 24" fill="none" stroke="currentColor" stroke-width="2" stroke-linecap="round" stroke-linejoin="round">
    <path d="M3 12a9 9 0 0 1 9-9 9.75 9.75 0 0 1 6.74 2.74L21 8" />
    <path d="M21 3v5h-5" />
    <path d="M21 12a9 9 0 0 1-9 9 9.75 9.75 0 0 1-6.74-2.74L3 16" />
    <path d="M8 16H3v5" />
  </symbol>
  <symbol id="icon-rocket" viewBox="0 0 24 24" fill="none" stroke="currentColor" stroke-width="2" stroke-linecap="round" stroke-linejoin="round">
    <path d="M12 15v5s3.03-.55 4-2c1.08-1.62 0-5 0-5" />
    <path d="M4.5 16.5c-1.5 1.26-2 5-2 5s3.74-.5 5-2c.71-.84.7-2.13-.09-2.91a2.18 2.18 0 0 0-2.91-.09" />
    <path d="M9 12a22 22 0 0 1 2-3.95A12.88 12.88 0 0 1 22 2c0 2.72-.78 7.5-6 11a22.4 22.4 0 0 1-4 2z" />
    <path d="M9 12H4s.55-3.03 2-4c1.62-1.08 5 .05 5 .05" />
  </symbol>
  <symbol id="icon-save" viewBox="0 0 24 24" fill="none" stroke="currentColor" stroke-width="2" stroke-linecap="round" stroke-linejoin="round">
    <path d="M15.2 3a2 2 0 0 1 1.4.6l3.8 3.8a2 2 0 0 1 .6 1.4V19a2 2 0 0 1-2 2H5a2 2 0 0 1-2-2V5a2 2 0 0 1 2-2z" />
    <path d="M17 21v-7a1 1 0 0 0-1-1H8a1 1 0 0 0-1 1v7" />
    <path d="M7 3v4a1 1 0 0 0 1 1h7" />
  </symbol>
  <symbol id="icon-search" viewBox="0 0 24 24" fill="none" stroke="currentColor" stroke-width="2" stroke-linecap="round" stroke-linejoin="round">
    <path d="m21 21-4.34-4.34" />
    <circle cx="11" cy="11" r="8" />
  </symbol>
  <symbol id="icon-server" viewBox="0 0 24 24" fill="none" stroke="currentColor" stroke-width="2" stroke-linecap="round" stroke-linejoin="round">
    <rect width="20" height="8" x="2" y="2" rx="2" ry="2" />
    <rect width="20" height="8" x="2" y="14" rx="2" ry="2" />
    <line x1="6" x2="6.01" y1="6" y2="6" />
    <line x1="6" x2="6.01" y1="18" y2="18" />
  </symbol>
  <symbol id="icon-trash-2" viewBox="0 0 24 24" fill="none" stroke="currentColor" stroke-width="2" stroke-linecap="round" stroke-linejoin="round">
    <path d="M10 11v6" />
    <path d="M14 11v6" />
    <path d="M19 6v14a2 2 0 0 1-2 2H7a2 2 0 0 1-2-2V6" />
    <path d="M3 6h18" />
    <path d="M8 6V4a2 2 0 0 1 2-2h4a2 2 0 0 1 2 2v2" />
  </symbol>
  <symbol id="icon-x" viewBox="0 0 24 24" fill="none" stroke="currentColor" stroke-width="2" stroke-linecap="round" stroke-linejoin="round">
    <path d="M18 6 6 18" />
    <path d="m6 6 12 12" />
  </symbol>
</svg>
